<?xml version="1.0" standalone="no"?>
<!DOCTYPE svg PUBLIC "-//W3C//DTD SVG 20010904//EN"
 "http://www.w3.org/TR/2001/REC-SVG-20010904/DTD/svg10.dtd">
<svg version="1.0" xmlns="http://www.w3.org/2000/svg"
 width="261.000000pt" height="261.000000pt" viewBox="0 0 261.000000 261.000000"
 preserveAspectRatio="xMidYMid meet">
<metadata>
Created by potrace 1.11, written by Peter Selinger 2001-2013
</metadata>
<g transform="translate(0.000000,261.000000) scale(0.100000,-0.100000)"
fill="#000000" stroke="none">
<path d="M449 2563 c-6 -40 -4 -267 3 -307 39 -214 80 -349 158 -511 219 -455
643 -797 1140 -920 87 -21 199 -41 209 -35 13 7 16 -43 16 -252 l0 -233 -705
-2 c-388 -1 -714 -2 -725 -3 -19 0 -21 -6 -20 -100 0 -65 4 -103 12 -108 15
-9 1631 -7 1641 2 9 10 16 750 7 833 l-6 62 -62 0 c-34 0 -78 2 -97 5 -19 3
-51 8 -70 10 -171 22 -423 113 -575 209 -231 145 -428 353 -547 576 -89 169
-159 400 -162 536 l-1 30 103 0 c56 0 102 0 102 -1 0 -1 7 -40 15 -86 67 -386
323 -732 677 -916 64 -34 120 -58 153 -68 6 -1 36 -12 68 -23 31 -11 57 -18
57 -16 0 3 12 0 28 -6 15 -6 45 -13 67 -15 22 -3 45 -6 52 -9 6 -2 53 -7 102
-11 l91 -6 0 111 0 112 -37 -2 c-38 -2 -163 10 -174 17 -3 2 -19 6 -36 8 -254
45 -562 262 -695 489 -71 121 -133 291 -140 382 l-3 39 94 1 94 0 17 -70 c25
-100 45 -149 96 -236 145 -248 415 -413 711 -436 l73 -5 0 108 0 109 -27 1
c-215 6 -412 111 -541 289 -48 65 -58 83 -82 147 -39 102 -66 93 301 93 294 0
322 1 328 17 5 13 6 152 2 191 -1 4 -386 7 -856 7 -470 0 -856 -3 -856 -7z"/>
</g>
</svg>
