<?xml version="1.0" encoding="utf-8"?>
<!-- Generator: Adobe Illustrator 19.2.1, SVG Export Plug-In . SVG Version: 6.00 Build 0)  -->
<svg version="1.1" id="Layer_1" xmlns="http://www.w3.org/2000/svg" xmlns:xlink="http://www.w3.org/1999/xlink" x="0px" y="0px"
	 viewBox="0 0 1348 544.6" style="enable-background:new 0 0 1348 544.6;" xml:space="preserve">
<style type="text/css">
	.st0{opacity:0.2;}
	.st1{clip-path:url(#SVGID_2_);fill:#F9F9F9;}
	.st2{opacity:5.000000e-002;clip-path:url(#SVGID_2_);fill:#333333;enable-background:new    ;}
	.st3{opacity:0.15;clip-path:url(#SVGID_2_);fill:#333333;enable-background:new    ;}
	.st4{opacity:0.26;clip-path:url(#SVGID_2_);fill:#DDDDDD;enable-background:new    ;}
	.st5{opacity:0.16;clip-path:url(#SVGID_2_);fill:#DDDDDD;enable-background:new    ;}
</style>
<g class="st0">
	<defs>
		<path id="SVGID_1_" class="st0" d="M0,0h1348v544.6H0V0z"/>
	</defs>
	<clipPath id="SVGID_2_">
		<use xlink:href="#SVGID_1_"  style="overflow:visible;"/>
	</clipPath>
	<path class="st1" d="M0,0h1348v638.8H0V0z"/>
	<path id="top-left" class="st2" d="M1134.3,0H-210.6v60.9c142.4,65.3,368.2,107.6,622.5,107.6C738.5,168.5,1018.2,98.9,1134.3,0z"
		/>
	<path id="bottom-right" class="st3" d="M474,544.1h874V433.6c-70.6-7.3-145.4-11.2-222.8-11.2C853.1,422.4,613.4,470.8,474,544.1z"
		/>
	<path id="top-right" class="st4" d="M1348,116.4V0H445.2c137.1,77.5,383.7,129.2,665,129.2C1193.2,129.2,1273,124.7,1348,116.4z"/>
	<path id="bottom-left" class="st5" d="M295.8,209C191.1,209,91.2,216.2,0,229.1v315h1053.2c14.6-20.7,22.4-42.3,22.4-64.6
		C1075.6,330.1,726.5,209,295.8,209z"/>
</g>
</svg>
