<!-- Generator: Adobe Illustrator 19.2.1, SVG Export Plug-In  -->
<svg version="1.1"
	 xmlns="http://www.w3.org/2000/svg" xmlns:xlink="http://www.w3.org/1999/xlink" xmlns:a="http://ns.adobe.com/AdobeSVGViewerExtensions/3.0/"
	 x="0px" y="0px" width="190.4px" height="33.6px" viewBox="0 0 190.4 33.6" enable-background="new 0 0 190.4 33.6"
	 xml:space="preserve">
<defs>
</defs>
<g>
	<g>
		<line fill="none" stroke="#333333" stroke-width="2.8708" stroke-miterlimit="10" x1="0.1" y1="1.7" x2="23" y2="1.7"/>
		<line fill="none" stroke="#333333" stroke-width="2.8708" stroke-miterlimit="10" x1="1.2" y1="32" x2="23.3" y2="32"/>
		<line fill="none" stroke="#333333" stroke-width="2.8708" stroke-miterlimit="10" x1="22" y1="32.9" x2="22" y2="22.2"/>
		<path fill="none" stroke="#333333" stroke-width="2.8708" stroke-miterlimit="10" d="M1.4,1.5L1.4,1.5c0,11.8,9.8,21.4,21.8,21.4"
			/>
		<path fill="none" stroke="#333333" stroke-width="2.8708" stroke-miterlimit="10" d="M23.3,17.1L23.3,17.1
			c-8.9,0-16.1-7-16.1-15.7l0,0"/>
		<path fill="none" stroke="#333333" stroke-width="2.8708" stroke-miterlimit="10" d="M12.6,1.5c0,5.5,4.7,10.2,10.6,10.2"/>
	</g>
	<g>
		<line fill="none" stroke="#333333" stroke-width="2.8708" stroke-miterlimit="10" x1="135.9" y1="32" x2="130.5" y2="32"/>
		<line fill="none" stroke="#333333" stroke-width="2.8708" stroke-miterlimit="10" x1="136" y1="26.6" x2="130.4" y2="26.6"/>
		<line fill="none" stroke="#333333" stroke-width="2.8708" stroke-miterlimit="10" x1="136" y1="21.6" x2="130.4" y2="21.6"/>
		<line fill="none" stroke="#333333" stroke-width="2.8708" stroke-miterlimit="10" x1="134.6" y1="0.1" x2="134.6" y2="32.3"/>
		<line fill="none" stroke="#333333" stroke-width="2.8708" stroke-miterlimit="10" x1="118.5" y1="0.1" x2="118.5" y2="16"/>
		<line fill="none" stroke="#333333" stroke-width="2.8708" stroke-miterlimit="10" x1="113" y1="0.4" x2="113" y2="16.2"/>
		<line fill="none" stroke="#333333" stroke-width="2.8708" stroke-miterlimit="10" x1="123.7" y1="0.1" x2="123.7" y2="16"/>
		<path fill="none" stroke="#333333" stroke-width="2.8708" stroke-miterlimit="10" d="M130.5,32c-12.5,0-17.5-6.5-17.5-16"/>
		<path fill="none" stroke="#333333" stroke-width="2.8708" stroke-miterlimit="10" d="M123.7,16c0,5.7,3.5,5.7,6.8,5.7"/>
		<path fill="none" stroke="#333333" stroke-width="2.8708" stroke-miterlimit="10" d="M118.5,16c0,5.2,1.2,10.6,12,10.6"/>
	</g>
	<g>
		<line fill="none" stroke="#333333" stroke-width="2.8708" stroke-miterlimit="10" x1="166.1" y1="1.4" x2="171.5" y2="1.4"/>
		<line fill="none" stroke="#333333" stroke-width="2.8708" stroke-miterlimit="10" x1="166" y1="6.9" x2="171.5" y2="6.9"/>
		<line fill="none" stroke="#333333" stroke-width="2.8708" stroke-miterlimit="10" x1="166" y1="11.8" x2="171.5" y2="11.8"/>
		<line fill="none" stroke="#333333" stroke-width="2.8708" stroke-miterlimit="10" x1="167.4" y1="33.4" x2="167.4" y2="1.2"/>
		<line fill="none" stroke="#333333" stroke-width="2.8708" stroke-miterlimit="10" x1="183.5" y1="33.4" x2="183.5" y2="17.5"/>
		<line fill="none" stroke="#333333" stroke-width="2.8708" stroke-miterlimit="10" x1="189" y1="33.1" x2="189" y2="17.3"/>
		<line fill="none" stroke="#333333" stroke-width="2.8708" stroke-miterlimit="10" x1="178.3" y1="33.4" x2="178.3" y2="17.5"/>
		<path fill="none" stroke="#333333" stroke-width="2.8708" stroke-miterlimit="10" d="M171.5,1.4C184,1.4,189,8,189,17.4"/>
		<path fill="none" stroke="#333333" stroke-width="2.8708" stroke-miterlimit="10" d="M178.3,17.5c0-5.7-3.5-5.7-6.8-5.7"/>
		<path fill="none" stroke="#333333" stroke-width="2.8708" stroke-miterlimit="10" d="M183.5,17.5c0-5.2-1.2-10.6-12-10.6"/>
	</g>
	<g>
		<line fill="none" stroke="#333333" stroke-width="2.8708" stroke-miterlimit="10" x1="27.2" y1="1.7" x2="49.3" y2="1.7"/>
		<line fill="none" stroke="#333333" stroke-width="2.8708" stroke-miterlimit="10" x1="47.8" y1="1.4" x2="47.8" y2="12.2"/>
		<path fill="none" stroke="#333333" stroke-width="2.8708" stroke-miterlimit="10" d="M27.5,33.3L27.5,33.3
			c0-11.8,9.8-21.4,21.8-21.4"/>
		<path fill="none" stroke="#333333" stroke-width="2.8708" stroke-miterlimit="10" d="M49.3,17.7L49.3,17.7
			c-8.9,0-16.1,7-16.1,15.7l0,0"/>
		<path fill="none" stroke="#333333" stroke-width="2.8708" stroke-miterlimit="10" d="M38.7,33.3c0-5.5,4.7-10.2,10.6-10.2"/>
	</g>
	<g>
		<line fill="none" stroke="#333333" stroke-width="2.8708" stroke-miterlimit="10" x1="160.6" y1="1.4" x2="160.6" y2="12.2"/>
		<line fill="none" stroke="#333333" stroke-width="2.8708" stroke-miterlimit="10" x1="139.9" y1="1.7" x2="162" y2="1.7"/>
		<path fill="none" stroke="#333333" stroke-width="2.8708" stroke-miterlimit="10" d="M140.2,33.3L140.2,33.3
			c0-11.8,9.8-21.4,21.8-21.4"/>
		<path fill="none" stroke="#333333" stroke-width="2.8708" stroke-miterlimit="10" d="M162,17.7L162,17.7c-8.9,0-16.1,7-16.1,15.7
			l0,0"/>
		<path fill="none" stroke="#333333" stroke-width="2.8708" stroke-miterlimit="10" d="M151.4,33.3c0-5.5,4.7-10.2,10.6-10.2"/>
	</g>
	<g>
		<line fill="none" stroke="#333333" stroke-width="2.8708" stroke-miterlimit="10" x1="54.7" y1="33.4" x2="54.7" y2="1.2"/>
		<line fill="none" stroke="#333333" stroke-width="2.8708" stroke-miterlimit="10" x1="53.4" y1="1.4" x2="58.8" y2="1.4"/>
		<line fill="none" stroke="#333333" stroke-width="2.8708" stroke-miterlimit="10" x1="53.3" y1="6.9" x2="58.8" y2="6.9"/>
		<line fill="none" stroke="#333333" stroke-width="2.8708" stroke-miterlimit="10" x1="53.3" y1="11.8" x2="58.8" y2="11.8"/>
		<line fill="none" stroke="#333333" stroke-width="2.8708" stroke-miterlimit="10" x1="70.8" y1="33.4" x2="70.8" y2="17.5"/>
		<line fill="none" stroke="#333333" stroke-width="2.8708" stroke-miterlimit="10" x1="76.3" y1="33.1" x2="76.3" y2="17.3"/>
		<line fill="none" stroke="#333333" stroke-width="2.8708" stroke-miterlimit="10" x1="65.6" y1="33.4" x2="65.6" y2="17.5"/>
		<path fill="none" stroke="#333333" stroke-width="2.8708" stroke-miterlimit="10" d="M58.8,1.4c12.5,0,17.5,6.5,17.5,16"/>
		<path fill="none" stroke="#333333" stroke-width="2.8708" stroke-miterlimit="10" d="M65.6,17.5c0-5.7-3.5-5.7-6.8-5.7"/>
		<path fill="none" stroke="#333333" stroke-width="2.8708" stroke-miterlimit="10" d="M70.8,17.5c0-5.2-1.2-10.6-12-10.6"/>
	</g>
	<g>
		<line fill="none" stroke="#333333" stroke-width="2.8708" stroke-miterlimit="10" x1="80.2" y1="1.7" x2="109" y2="1.7"/>
		<g>
			<line fill="none" stroke="#333333" stroke-width="2.8708" stroke-miterlimit="10" x1="94.6" y1="1.7" x2="94.6" y2="33.4"/>
			<line fill="none" stroke="#333333" stroke-width="2.8708" stroke-miterlimit="10" x1="90.1" y1="1.7" x2="90.1" y2="33.2"/>
			<line fill="none" stroke="#333333" stroke-width="2.8708" stroke-miterlimit="10" x1="99.2" y1="1.7" x2="99.2" y2="33.2"/>
		</g>
	</g>
</g>
</svg>
