<svg xmlns="http://www.w3.org/2000/svg" xmlns:xlink="http://www.w3.org/1999/xlink" width="485.7" height="94.2" viewBox="0 0 485.7 94.2">
  <g fill="#333">
    <path d="M217.8 39c-.1-.6-.1-1.1 0-1.5.8-.7 1.5-1.9 2.2-3.7.7-1.9.5-2.8-.5-2.8-.7 0-1.9.4-3.6 1.3-1.6.9-2.5 2.4-2.6 4.2-.1.7.2 1.4.8 2.2.6.7 1.4 1.4 2.3 2.2 1.7 1.5 3.8 3 6.2 4.6 2 1.3 3.7 2.6 5.1 4 1.1-.7 2.3-1.4 3.5-2.1 4.4-2.4 6.9-4.7 7.5-6.8.6-.1 1.2-.1 1.8 0 .7 0 1.2.1 1.5.4-.6 1.8-1.9 3.6-4 5.4-2.1 1.7-4.5 3.4-7.1 5.1-.3.2-.6.3-.9.5l.8 1.3c.5.9.8 1.9.8 2.8-.2 1.9-.6 3.6-1.3 5.3-.7 1.6-1.5 3.1-2.6 4.4-1.1 1.3-2.4 2.4-3.9 3.3-1.4.9-2.8 1.7-4.2 2.2-1.5.5-3 .8-4.4.9-1 0-2-.2-3-.5-2.1-.7-3.3-2.4-3.3-5.1-.1-2 .8-3.9 2.7-5.9 1.5-1.5 3.2-2.9 5.3-4.4-.3-.7-.6-1.3-.9-1.9-.9-1.3-1.8-2.5-2.8-3.7-1.9-2.2-3.7-4.5-5.5-6.7-1.8-2.1-2.7-5-2.7-8.5v-.1c0-1.9 1.2-3.8 3.5-5.8 1.7-1.5 3.6-2.2 5.7-2.2.8 0 1.5.1 2.3.4 4.3 1 6.8 3 7.6 5.9.8 3-.9 5.3-4.9 6.8-.8-.5-1.3-1-1.4-1.5zm-4.3 30.1c1.5.6 2.7.2 3.7-1.3.5-.8.9-1.9 1-3.3.2-1.3 0-3-.4-5-3.3 2.1-5.2 4.2-5.8 6.3-.4 1.6.1 2.7 1.5 3.3z"/>
    <path d="M252.9 34.5c-.1.6-.4.9-.9.9-1.7-1-3.1-1.6-4.2-1.7-1.1 0-2 .4-2.7 1.2-.9.9-1.4 2.1-1.7 3.7-.3 1.7-.5 3.5-.4 5.3.1 2.8.5 5.5 1.2 8s1.4 3.8 2.1 3.9c.9.3 1.8-.9 2.8-3.3 1-2.4 2-5 2.8-7.8.7-2.3 1.3-4.5 1.8-6.4s.8-3.2.9-3.6c.8-3.9 2.5-6.1 5.3-6.4.6-.2 1.2-.3 1.8-.3 1.6 0 2.6.5 2.8 1.4.3.8.5 3.2.5 7.2s.1 8.1.4 12.4c.2 3.4.5 6.4 1 9 .4 2.7 1.1 4 2.1 4.1 1.1.1 2.4-1.1 3.7-3.6 1.5-2.4 2.8-5.1 4-8 .8-1.9 1.5-3.7 2.1-5.4.6-1.8 1-3.1 1.3-4 .5-.2 1-.3 1.5-.3s1 .1 1.5.4c-.4 1.6-1.2 4.2-2.3 7.7-1.1 3.4-2.5 6.6-4.2 9.7-1.1 2-2.4 3.6-3.7 5-1.3 1.2-2.7 1.8-4.1 1.8h-.3c-3.2-.2-5.8-1.2-7.8-3.2-2-1.9-3.5-3.9-4.6-6-.6-1.1-1.1-2.1-1.4-3.1-.3-.9-.6-1.7-.8-2.3-.4 1.8-1.2 3.5-2.2 5-1 1.6-3.1 2.4-6.3 2.4-1.8-.1-3.3-.5-4.5-1.2-1.2-.7-2.1-1.6-2.8-2.8-.8-1.3-1.2-2.7-1.4-4.4-.1-.7-.1-1.4-.1-2.1 0-.9.1-1.9.3-2.8.4-3.2 1.5-6.2 3.2-9 1.7-2.8 3.7-4.6 5.9-5.3 1.2-.3 2.4-.3 3.6 0 1.3.4 2.6 1.3 3.9 2.7 0 .3.1.7-.1 1.2z"/>
    <path d="M291.2 40.5c.3-3.9 1.3-7.1 2.8-9.5.5-.8 1.1-1.4 1.8-1.9.7-.4 1.5-.7 2.4-.8h.1c1.9 0 3.5.5 4.9 1.4 1.4.9 2.5 2.2 3.5 3.7.9 1.4 1.5 3 2.1 4.8.5 1.7.9 3.5 1.3 5.4.7 4.4 1.1 8.4 1.3 12.2.1 3.8.5 5.7 1.3 5.7.7 0 1.7-1.2 3.1-3.5 1.4-2.3 2.7-4.8 3.9-7.5.8-1.7 1.5-3.3 2.1-4.8.6-1.5 1-2.7 1.2-3.3.4-.1.9-.2 1.5-.3.5-.1 1.1 0 1.7.4-.3 1.3-1.2 3.5-2.4 6.6-1.2 3.1-2.7 6-4.4 8.6-1.1 1.8-2.3 3.3-3.5 4.6-1.3 1.2-2.5 1.8-3.7 1.8-2.1-.1-3.8-.6-5.1-1.5-1.4-.9-2.5-2.2-3.3-3.7-.9-1.5-1.5-3.1-2.1-4.9-.5-1.7-.9-3.5-1.2-5.4-.7-4.4-1-8.4-1-12.1-.1-3.8-.6-5.6-1.4-5.5-1.3.2-2.2 2.2-2.7 6.2-.5 3.9-.9 8.1-1 12.6-.2 3.7-.3 7-.3 9.9-.1 3-.2 4.8-.3 5.3-.4.8-1.2 1.1-2.3 1-.8 0-1.6-.1-2.6-.4-2.6-.9-4.1-1.9-4.6-3.2 0-.5-.4-1.8-1.2-3.9-.7-2.1-1.5-4.5-2.4-7.1-1.1-3.1-2.2-6.1-3.2-9.1s-1.6-4.9-1.8-5.7c.7-.8 2.4-1.6 5.1-2.4 2.8-.9 5-.4 6.6 1.3.6.9 1.2 3 1.8 6.3.6 3.2 1.1 5.4 1.4 6.7.1-1.3.3-4 .6-8z"/>
    <path d="M335 26.6c.3 3.2.6 6.5.9 10 .2 2.7.4 5.3.8 8 .3 2.6.5 5.1.8 7.6.6 4.4 1.2 8.1 1.8 11.1.7 2.9 1.5 4.3 2.3 4.2 1.5-.1 3.3-1.6 5.3-4.5 1.9-2.9 3.6-6.1 5.1-9.5 1-2.2 1.9-4.3 2.7-6.3.8-2 1.3-3.4 1.7-4.4.4 0 .9 0 1.5.1.5 0 1 .2 1.4.6-.3 1.3-1.2 4-2.8 8.1-1.6 4.1-3.6 8-5.8 11.6-1.5 2.4-3.1 4.4-4.6 5.9-1.5 1.4-2.9 2.1-4.2 2.1h-.6c-4.9-.8-8.8-2.4-11.8-4.9-3-2.6-5.2-5.7-6.7-9.3-1.2-3-2-6.2-2.4-9.7-.3-2.4-.4-4.8-.4-7.2 0-1.1 0-2.2.1-3.2.2-3.9.6-7.6 1.2-11.3-2.2-.1-4.5-.2-6.9-.3-1-.1-1.5-.2-1.5-.4-.1-.1.2-.3.8-.5 1.5-.6 2.4-1 3-1.3.3-.4 1.2-.7 3-.8h2.4l1-4.1c1.5-5.9 2.9-10.2 4-12.7.5-1.1 1.1-1.7 1.7-1.7.5 0 1.1.5 1.7 1.4 1.3 1.9 2.5 3.3 3.6 4.1.2 1.3.4 4.5.8 9.8.1 1 .1 2.1.1 3.1l2.4.6c1.8.7 3.5 1 5.1 1 .1.3.1.8.1 1.3v.3c-.1.7-.6 1-1.7 1H335z"/>
    <path d="M365 39c-.1 1.9-.2 4-.3 6.3-.1 3.4 0 6.7.1 9.8.1 3 .5 4.6 1.2 4.8.7.2 1.3-.5 1.8-1.9.6-1.5 1.1-3.2 1.5-5.1.6-2.5 1.1-4.9 1.4-7.3.3-2.4.6-3.9.6-4.4.9-3.9 2.6-6.1 5.3-6.6 2.6-.3 4 .1 4.4 1.3.3.6.6 2 .8 4.1.2 2.1.3 4.5.5 6.9.3 3 .8 5.8 1.3 8.5.5 2.6 1.3 3.9 2.3 4 1.3.1 2.7-.8 4.2-2.6s2.9-3.8 4.1-6c.9-1.5 1.6-2.9 2.3-4.4.6-1.4 1-2.5 1.3-3.5.5-.2 1-.3 1.4-.3.4 0 .9.1 1.4.4-.5 1.8-1.5 4.2-3 7.3-1.5 3.1-3.2 5.8-5.3 8.1-1 1.3-2.1 2.3-3.3 3.1-1.3.7-2.6 1-3.9.9-4.5-.3-7.8-1.5-9.7-3.9-1.9-2.4-3-4.5-3.5-6.2-.4 1.8-1 4.1-1.7 6.8-.8 2.7-2.7 4-5.9 4.1h-.5c-2.5 0-4.5-.4-6-1.3-1.6-1-2.9-2.3-3.7-3.9-1.1-2.1-1.7-4.6-1.7-7.5v-1.3c.3-3.3.7-6.6 1.3-9.7.3-1.7.7-3.3 1-4.6.3-1.5.6-2.7.9-3.7.4-1 1.1-1.5 1.9-1.4.8 0 1.8.4 3 1.3 2.5 1.8 3.9 3 4.2 3.5V39z"/>
    <path d="M411.2 34.5c-.1.6-.4.9-.9.9-1.7-1-3.1-1.6-4.2-1.7-1.1 0-2 .4-2.7 1.2-.9.9-1.4 2.1-1.7 3.7-.3 1.7-.5 3.5-.4 5.3.1 2.8.5 5.5 1.2 8s1.4 3.8 2.1 3.9c.9.3 1.8-.9 2.8-3.3 1-2.4 2-5 2.8-7.8.7-2.3 1.3-4.5 1.8-6.4s.8-3.2.9-3.6c.8-3.9 2.5-6.1 5.3-6.4.6-.2 1.2-.3 1.8-.3 1.6 0 2.6.5 2.8 1.4.3.8.5 3.2.5 7.2s.1 8.1.4 12.4c.2 3.4.5 6.4 1 9 .4 2.7 1.1 4 2.1 4.1 1.1.1 2.4-1.1 3.7-3.6 1.5-2.4 2.8-5.1 4-8 .8-1.9 1.5-3.7 2.1-5.4.6-1.8 1-3.1 1.3-4 .5-.2 1-.3 1.5-.3s1 .1 1.5.4c-.4 1.6-1.2 4.2-2.3 7.7-1.1 3.4-2.5 6.6-4.2 9.7-1.1 2-2.4 3.6-3.7 5-1.3 1.2-2.7 1.8-4.1 1.8h-.3c-3.2-.2-5.8-1.2-7.8-3.2-2-1.9-3.5-3.9-4.6-6-.6-1.1-1.1-2.1-1.4-3.1-.3-.9-.6-1.7-.8-2.3-.4 1.8-1.2 3.5-2.2 5-1 1.6-3.1 2.4-6.3 2.4-1.8-.1-3.3-.5-4.5-1.2-1.2-.7-2.1-1.6-2.8-2.8-.8-1.3-1.2-2.7-1.4-4.4-.1-.7-.1-1.4-.1-2.1 0-.9.1-1.9.3-2.8.4-3.2 1.5-6.2 3.2-9 1.7-2.8 3.7-4.6 5.9-5.3 1.2-.3 2.4-.3 3.6 0 1.3.4 2.6 1.3 3.9 2.7 0 .3.1.7-.1 1.2z"/>
    <path d="M450.8 40.5c.3-3.9 1.3-7.1 2.8-9.5.5-.8 1.1-1.4 1.8-1.9.7-.4 1.5-.7 2.4-.8h.1c1.9 0 3.5.5 4.9 1.4 1.4.9 2.5 2.2 3.5 3.7.9 1.4 1.5 3 2.1 4.8.5 1.7.9 3.5 1.3 5.4.7 4.4 1.1 8.4 1.3 12.2.1 3.8.5 5.7 1.3 5.7.7 0 1.7-1.2 3.1-3.5 1.4-2.3 2.7-4.8 3.9-7.5.8-1.7 1.5-3.3 2.1-4.8.6-1.5 1-2.7 1.2-3.3.4-.1.9-.2 1.5-.3.5-.1 1.1 0 1.7.4-.3 1.3-1.2 3.5-2.4 6.6-1.2 3.1-2.7 6-4.4 8.6-1.1 1.8-2.3 3.3-3.5 4.6-1.3 1.2-2.5 1.8-3.7 1.8-2.1-.1-3.8-.6-5.1-1.5-1.4-.9-2.5-2.2-3.3-3.7-.9-1.5-1.5-3.1-2.1-4.9-.5-1.7-.9-3.5-1.2-5.4-.7-4.4-1-8.4-1-12.1-.1-3.8-.6-5.6-1.4-5.5-1.3.2-2.2 2.2-2.7 6.2-.5 3.9-.9 8.1-1 12.6-.2 3.7-.3 7-.3 9.9-.1 3-.2 4.8-.3 5.3-.4.8-1.2 1.1-2.3 1-.8 0-1.6-.1-2.6-.4-2.6-.9-4.1-1.9-4.6-3.2 0-.5-.4-1.8-1.2-3.9-.7-2.1-1.5-4.5-2.4-7.1-1.1-3.1-2.2-6.1-3.2-9.1s-1.6-4.9-1.8-5.7c.7-.8 2.4-1.6 5.1-2.4 2.8-.9 5-.4 6.6 1.3.6.9 1.2 3 1.8 6.3.6 3.2 1.1 5.4 1.4 6.7 0-1.3.3-4 .6-8z"/>
  </g>
  <path fill="#E74547" d="M65.7 21.5h51v51h-51z"/>
  <path fill="none" stroke="#D52B29" stroke-width="2.0332" stroke-miterlimit="10" d="M65.7 21.5h23.5v35.7H65.7z"/>
  <path fill="none" stroke="#D52B29" stroke-width="2.0332" stroke-miterlimit="10" d="M89.3 21.5h27.5V42H89.3z"/>
  <path fill="none" stroke="#D52B29" stroke-width="2.0332" stroke-miterlimit="10" d="M89.3 42.1h27.5v17.3H89.3z"/>
  <path fill="none" stroke="#D52B29" stroke-width="2.0332" stroke-miterlimit="10" d="M89.3 59.3h13.2v13.2H89.3z"/>
  <path fill="none" stroke="#D52B29" stroke-width="2.0332" stroke-miterlimit="10" d="M102.5 59.3h8.4v13.2h-8.4z"/>
  <path fill="none" stroke="#D52B29" stroke-width="2.0332" stroke-miterlimit="10" d="M110.8 59.3h5.9v13.2h-5.9z"/>
  <path fill="none" stroke="#D52B29" stroke-width="2.0332" stroke-miterlimit="10" d="M65.7 57.2h23.5v15.3H65.7z"/>
  <path fill="#F9E651" d="M154.4 19.2L170 46.4l15.7 27.1h-62.5l15.6-27.1z"/>
  <path fill="#FFD340" d="M154.4 31.8l12 20.9 12 20.8h-47.9l12-20.8z"/>
  <path fill="#F9E651" d="M154.4 46.3l7.8 13.6 7.8 13.6h-31.2l7.8-13.6z"/>
  <path fill="#FAA934" d="M154.4 58.9l4.2 7.3 4.2 7.3h-16.7l4.2-7.3z"/>
  <defs>
    <circle id="SVGID_1_" cx="31.4" cy="47.1" r="27.2"/>
  </defs>
  <clipPath id="SVGID_2_">
    <use xlink:href="#SVGID_1_" overflow="visible"/>
  </clipPath>
  <circle clip-path="url(#SVGID_2_)" fill="#3F96D2" cx="31.4" cy="47.1" r="27.2"/>
  <defs>
    <circle id="SVGID_3_" cx="31.4" cy="47.1" r="27.2"/>
  </defs>
  <clipPath id="SVGID_4_">
    <use xlink:href="#SVGID_3_" overflow="visible"/>
  </clipPath>
  <g clip-path="url(#SVGID_4_)">
    <g id="XMLID_1_">
      <path fill="#3086C1" d="M62.8 31.4c0 5.7-1.5 11.1-4.2 15.7-5.4-9.4-15.6-15.7-27.2-15.7S9.6 37.7 4.2 47.1C1.5 42.5 0 37.1 0 31.4 0 14.1 14.1 0 31.4 0s31.4 14.1 31.4 31.4z"/>
      <path fill="#3086C1" d="M58.6 47.1c2.7 4.6 4.2 10 4.2 15.7 0 17.3-14.1 31.4-31.4 31.4S0 80.2 0 62.8c0-5.7 1.5-11.1 4.2-15.7 5.4 9.4 15.6 15.7 27.2 15.7s21.8-6.3 27.2-15.7z"/>
      <path fill="#55A4D8" d="M31.4 31.4c11.6 0 21.8 6.3 27.2 15.7-5.4 9.4-15.6 15.7-27.2 15.7S9.6 56.5 4.2 47.1c5.4-9.4 15.6-15.7 27.2-15.7zm12.2 15.7c0-6.7-5.5-12.2-12.2-12.2s-12.2 5.5-12.2 12.2 5.4 12.2 12.2 12.2 12.2-5.5 12.2-12.2z"/>
      <path fill="#E1EDEE" d="M31.4 34.9c6.7 0 12.2 5.5 12.2 12.2s-5.5 12.2-12.2 12.2-12.2-5.4-12.2-12.2 5.5-12.2 12.2-12.2zm4.2 12.2c0-2.3-1.9-4.2-4.2-4.2-2.3 0-4.2 1.9-4.2 4.2 0 2.3 1.9 4.2 4.2 4.2s4.2-1.9 4.2-4.2z"/>
      <circle fill="#3086C1" cx="31.4" cy="47.1" r="4.2"/>
    </g>
  </g>
</svg>
